<svg id="Layer_1" data-name="Layer 1" xmlns="http://www.w3.org/2000/svg" viewBox="0 0 960 628.75"><defs><style>.cls-1{fill:#ccc;}.cls-2{fill:none;stroke:#fff;stroke-miterlimit:10;stroke-width:2px;}</style></defs><title>Artboard 1</title><path class="cls-1" d="M190.27,359.45c0,7.72,2.3,9.48,11.38,9.48v6.77H156.81v-6.77c6.37,0,8.67-1.76,8.67-9.48V298c0-7.72-2.3-9.48-8.67-9.48v-7.18h47c19.1,0,33.19,7.86,33.19,29.4,0,14-6.1,30.07-34.27,30.07H190.27ZM197,292.13h-6.77v37.12h7.32c9.48,0,13-3.79,13-18.69C210.59,296.87,206.67,292.13,197,292.13Z"/><path class="cls-1" d="M250.42,298c0-7.72-2.3-9.48-8.67-9.48v-7.18h42.13v7.18c-6.37,0-8.67,1.76-8.67,9.48v61.5c0,7.72,2.3,9.48,8.67,9.48v6.77H241.75v-6.77c6.37,0,8.67-1.76,8.67-9.48Z"/><path class="cls-1" d="M292.69,330.06c0-35.76,18.42-50.39,45.25-50.39,12.73,0,22.76,2.44,29.94,6.91v19.78h-16.8c-2-10.3-4.74-15.71-13.41-15.71-11.51,0-17.34,7.72-17.34,38.34,0,32.78,7.18,37.93,16.8,37.93,10.7,0,13.68-5.42,15.31-16.66h16.12v19.37c-5.83,4.47-19,7.86-32.51,7.86C308.67,377.47,292.69,360.94,292.69,330.06Z"/><path class="cls-1" d="M456.46,281.29,458.09,308H446.3c-3-11.65-3.79-15.85-12.73-15.85h-3.93v67.33c0,7.72,2.3,9.48,10,9.48v6.77H394.83v-6.77c7.72,0,10-1.76,10-9.48V292.13h-3.93c-8.94,0-9.75,4.2-12.73,15.85H376.4L378,281.29Z"/><path class="cls-1" d="M531.11,298c0-7.72-2.3-9.48-8.67-9.48v-7.18h29.4v7.18c-6.37,0-8.67,1.76-8.67,9.48v47.14c0,19.64-9.62,32.38-35.36,32.38-24.79,0-35.49-8.94-35.49-32V298c0-7.72-2.3-9.48-8.67-9.48v-7.18h42.13v7.18c-6.37,0-8.67,1.76-8.67,9.48v48.36c0,14.5,5.69,18.83,16.12,18.83s17.88-4.74,17.88-20.32Z"/><path class="cls-1" d="M612.93,334.8c6.64,1.76,12.46,5.69,15.31,9.89,3.52,5.15,4.88,7.86,8.81,16.39,2.3,5.15,3.39,7.59,9.62,7.86v6.77H616.18c-5.83-14.9-6.23-16-11.38-26.15-4.61-8.81-6.91-10.57-13.28-11.52v21.4c0,7.72,2.3,9.48,8.67,9.48v6.77H558.07v-6.77c6.37,0,8.67-1.76,8.67-9.48V298c0-7.72-2.3-9.48-8.67-9.48v-7.18h47c19.1,0,33.19,7.86,33.19,27.91,0,17.07-11.38,23.84-25.33,25.06Zm-14.09-42.67h-7.32v34.54h7.32c9.48,0,13-3.25,13-17.48C611.85,296.87,607.92,292.13,598.84,292.13Z"/><path class="cls-1" d="M650.73,368.94c6.37,0,8.67-1.76,8.67-9.48V298c0-7.72-2.3-9.48-8.67-9.48v-7.18h69.63l1.63,24H710.06c-3-10.3-4.2-13.14-14.5-13.14H684.19v31.16h6.5c8.4,0,10.43-1.9,11-9.62h10.43V343.2H701.66c-.54-7.32-2.44-9.62-10.84-9.62h-6.64v32.11h14.22c8.4,0,12.06-3.12,13.14-15.71h12.06v25.74H650.73Z"/><path class="cls-1" d="M732.69,369.88V351.33h16.12c1.22,12.73,7,17.61,15.71,17.61,8.4,0,14.36-3.66,14.36-14,0-7.18-3.12-11.65-13.14-14.22L756,338.19c-14.5-3.66-23.17-10.84-23.17-28.18,0-20.73,13.55-30.34,33.73-30.34,15,0,24.52,4.33,28.85,6.5v20.32h-16c-1.08-10.43-4.33-17.34-14.5-17.34-8.13,0-11.65,4.74-11.65,11.92,0,6.1,2.57,10.7,11.65,12.87l9.21,2.17c15.85,3.79,26.42,12.6,26.42,30.48,0,20.18-13.28,31-36.85,31C747.45,377.61,739.19,373.68,732.69,369.88Z"/><path class="cls-1" d="M53.38,449.66c0-35.76,18.42-50.39,43.35-50.39s43.35,14.63,43.35,50.39c0,30.89-16,47.28-43.35,47.28S53.38,480.54,53.38,449.66ZM81,448.57C81,481.36,87.11,487,96.73,487s15.71-5.69,15.71-38.88c0-30.21-5.15-37.93-15.71-37.93S81,418,81,448.57Z"/><path class="cls-1" d="M143.47,488.54c6.37,0,8.67-1.76,8.67-9.48v-61.5c0-7.72-2.3-9.48-8.67-9.48v-7.18H213.1l1.63,24H202.8c-3-10.3-4.2-13.14-14.5-13.14H176.93v31.16h6.5c8.4,0,10.43-1.9,11-9.62h10.43V462.8H194.4c-.54-7.32-2.44-9.62-10.84-9.62h-6.64v25.87c0,7.72,2.3,9.48,11.38,9.48v6.77H143.47Z"/><path class="cls-1" d="M332.31,400.89l1.63,26.69H322.15c-3-11.65-3.79-15.85-12.73-15.85h-3.93v67.33c0,7.72,2.3,9.48,10,9.48v6.77H270.67v-6.77c7.72,0,10-1.76,10-9.48V411.73h-3.93c-8.94,0-9.75,4.2-12.73,15.85H252.25l1.63-26.69Z"/><path class="cls-1" d="M402.35,453.31H372.82v25.74c0,7.72,2.3,9.48,8.67,9.48v6.77H339.36v-6.77c6.37,0,8.67-1.76,8.67-9.48v-61.5c0-7.72-2.3-9.48-8.67-9.48v-7.18h42.13v7.18c-6.37,0-8.67,1.76-8.67,9.48V441.8h29.53V417.55c0-7.72-2.3-9.48-8.67-9.48v-7.18h42.13v7.18c-6.37,0-8.67,1.76-8.67,9.48v61.5c0,7.72,2.3,9.48,8.67,9.48v6.77H393.68v-6.77c6.37,0,8.67-1.76,8.67-9.48Z"/><path class="cls-1" d="M442.58,488.54c6.37,0,8.67-1.76,8.67-9.48v-61.5c0-7.72-2.3-9.48-8.67-9.48v-7.18h69.63l1.63,24H501.92c-3-10.3-4.2-13.14-14.5-13.14H476v31.16h6.5c8.4,0,10.43-1.9,11-9.62h10.43V462.8H493.52c-.54-7.32-2.44-9.62-10.84-9.62H476v32.11h14.22c8.4,0,12.06-3.12,13.14-15.71h12.06v25.74H442.58Z"/><path class="cls-1" d="M604.47,445.73l12.6-29.8a11.31,11.31,0,0,0,1.08-4.2c0-2.57-1.9-3.93-6.37-3.93v-6.91h29.67v6.91c-5.42.68-7.18,1.9-10,7.86L610.16,460v19.1c0,7.72,2.3,9.48,10,9.48v6.77H575.34v-6.77c7.72,0,10-1.76,10-9.48v-19l-22.22-44.43c-3-6-4.61-7.18-9.21-7.86v-6.91h41.32v6.91c-4.33,0-6.37,1.76-6.37,4.47a8.15,8.15,0,0,0,.95,3.66l13.82,29.8Z"/><path class="cls-1" d="M647.14,488.54c6.37,0,8.67-1.76,8.67-9.48v-61.5c0-7.72-2.3-9.48-8.67-9.48v-7.18h69.63l1.63,24H706.48c-3-10.3-4.2-13.14-14.5-13.14H680.6v31.16h6.5c8.4,0,10.43-1.9,11-9.62h10.43V462.8H698.08c-.54-7.32-2.44-9.62-10.84-9.62H680.6v32.11h14.22c8.4,0,12.06-3.12,13.14-15.71H720v25.74H647.14Z"/><path class="cls-1" d="M779.9,471.6h-28L749,482a9.22,9.22,0,0,0-.54,2.84c0,3,2.57,3.25,8.26,3.52v6.91H726.39V488.4c5.42-.68,7.32-1.63,9.35-7.86l25.74-79.65h19.24l27.91,79.65c2,5.69,3.25,7.18,8.13,7.86v6.91H776.11V488.4c6-.27,7.86-1.22,7.86-3.39a10.08,10.08,0,0,0-.68-3Zm-24.79-11.51h21L768.25,436a84.81,84.81,0,0,1-2.71-10.84h-.81a83,83,0,0,1-2.84,11.24Z"/><path class="cls-1" d="M875.67,454.4c6.64,1.76,12.46,5.69,15.31,9.89,3.52,5.15,4.88,7.86,8.81,16.39,2.3,5.15,3.39,7.59,9.62,7.86v6.77H878.93c-5.83-14.9-6.23-16-11.38-26.15-4.61-8.81-6.91-10.57-13.28-11.52v21.4c0,7.72,2.3,9.48,8.67,9.48v6.77H820.81v-6.77c6.37,0,8.67-1.76,8.67-9.48v-61.5c0-7.72-2.3-9.48-8.67-9.48v-7.18h47c19.1,0,33.19,7.86,33.19,27.91,0,17.07-11.38,23.84-25.33,25.06Zm-14.09-42.67h-7.31v34.54h7.31c9.48,0,13-3.25,13-17.48C874.59,416.47,870.66,411.73,861.59,411.73Z"/><path class="cls-1" d="M76.41,576.72,76.9,585H73.56c-.89-3.83-1.2-5.12-4-5.12H67.6v22.56c0,2.58.85,3.16,3.52,3.16v2h-14v-2c2.67,0,3.52-.58,3.52-3.16V579.88H58.7c-2.89,0-3.16,1.29-4,5.12H51.27l.49-8.28Z"/><path class="cls-1" d="M101.33,593.45H90.74v9c0,2.54.71,3.16,3.07,3.16v2H80.72v-2c2.31,0,3-.62,3-3.16V582.06c0-2.54-.71-3.16-3-3.2v-2.14H93.81v2.14c-2.36,0-3.07.67-3.07,3.2v8.05h10.59v-8.05c0-2.54-.71-3.16-3.07-3.2v-2.14h13.08v2.14c-2.31,0-3,.67-3,3.2v20.38c0,2.54.71,3.16,3,3.16v2H98.25v-2c2.36,0,3.07-.62,3.07-3.16Z"/><path class="cls-1" d="M115.69,605.6c2.31,0,3-.62,3-3.16V582.06c0-2.54-.71-3.16-3-3.2v-2.14H138l.49,7.52h-3.29c-1-3.38-1.51-4.36-4.63-4.36H125.7v10.59h2.76c2.76,0,3.47-.62,3.65-3.16H135v9.34h-2.94c-.18-2.4-.85-3.16-3.6-3.16h-2.8v11.17h5.52c2.94,0,4-1,4.41-5.16H139v8.14H115.69Z"/><path class="cls-1" d="M155.64,605.6c2.31,0,3-.62,3-3.16V582.06c0-2.54-.71-3.16-3-3.2v-2.14h12.9c9.08,0,14.73,4.41,14.73,15.62,0,9.92-4.89,15.31-14.91,15.31H155.64Zm12.24-.93c5.56,0,7.88-2,7.88-12,0-10.23-2.36-12.77-7.74-12.77H165.7v24.78Z"/><path class="cls-1" d="M188.16,605.6c2.31,0,3-.62,3-3.16V582.06c0-2.54-.71-3.16-3-3.2v-2.14h22.29l.49,7.52h-3.29c-1-3.38-1.51-4.36-4.63-4.36h-4.85v10.59h2.76c2.76,0,3.47-.62,3.65-3.16h2.94v9.34h-2.94c-.18-2.4-.85-3.16-3.6-3.16h-2.8v11.17h5.52c2.94,0,4-1,4.41-5.16h3.38v8.14H188.16Z"/><path class="cls-1" d="M216.32,605.6c2.31,0,3-.62,3-3.16V582.06c0-2.54-.71-3.16-3-3.2v-2.14h22.29l.53,7.61h-3.29c-1.07-3.56-1.56-4.45-4.76-4.45h-4.76v10.81h2.76c2.76,0,3.47-.62,3.65-3.16h2.94v9.34h-2.94c-.18-2.4-.85-3.2-3.6-3.2h-2.8v8.72c0,2.54.76,3.2,3.78,3.2v2H216.32Z"/><path class="cls-1" d="M246.8,582.06c0-2.54-.71-3.16-3-3.2v-2.14h13.08v2.14c-2.36,0-3.07.67-3.07,3.2v20.38c0,2.54.71,3.16,3.07,3.16v2H243.77v-2c2.31,0,3-.62,3-3.16Z"/><path class="cls-1" d="M283.68,582.06c0-2.54-.71-3.16-3.07-3.2v-2.14h9.79v2.14c-2.31,0-3,.67-3,3.2v25.58h-5l-10.9-16.91a53.2,53.2,0,0,1-3.69-6.63h-.18a62,62,0,0,1,.4,6.81v11.52c0,2.54.71,3.16,3.07,3.16v2h-9.92v-2c2.31,0,3-.62,3-3.16V582.06c0-2.54-.71-3.16-3-3.2v-2.14h10.28l9.43,14.82a35.27,35.27,0,0,1,2.94,5.78h.22a62.73,62.73,0,0,1-.4-6.63Z"/><path class="cls-1" d="M297.34,582.06c0-2.54-.71-3.16-3-3.2v-2.14h13.08v2.14c-2.36,0-3.07.67-3.07,3.2v20.38c0,2.54.71,3.16,3.07,3.16v2H294.31v-2c2.31,0,3-.62,3-3.16Z"/><path class="cls-1" d="M334.22,582.06c0-2.54-.71-3.16-3.07-3.2v-2.14h9.79v2.14c-2.31,0-3,.67-3,3.2v25.58h-5l-10.9-16.91a53.2,53.2,0,0,1-3.69-6.63h-.18a62,62,0,0,1,.4,6.81v11.52c0,2.54.71,3.16,3.07,3.16v2h-9.92v-2c2.31,0,3-.62,3-3.16V582.06c0-2.54-.71-3.16-3-3.2v-2.14H322l9.43,14.82a35.27,35.27,0,0,1,2.94,5.78h.22a62.73,62.73,0,0,1-.4-6.63Z"/><path class="cls-1" d="M363.71,597.41c0-2.54-.67-3.2-3.6-3.2v-2.14h13.44v2.14c-2.18,0-2.89.67-2.89,3.2v7.88c-2.67,2-7.21,2.89-11.08,2.89-8.9,0-14.19-5.52-14.19-15.57,0-11.26,6-16.42,14.64-16.42,4.41,0,7.65.89,9.83,2.27v6.05H365c-.67-3.38-1.69-5.16-5.12-5.16-4.54,0-6.67,3.56-6.67,13.08,0,10,2.31,12.77,6.63,12.77a6.38,6.38,0,0,0,3.92-1Z"/><path class="cls-1" d="M392.36,582.06c0-2.54-.71-3.16-3-3.2v-2.14h13.08v2.14c-2.36,0-3.07.67-3.07,3.2v20.38c0,2.54.71,3.16,3.07,3.16v2H389.34v-2c2.31,0,3-.62,3-3.16Z"/><path class="cls-1" d="M442.59,578.81c-3.11.18-3.43,1.07-3.2,3.38l1.78,20c.22,2.49.58,3.34,3.07,3.43v2H431.29v-2c2.89-.09,3.2-.8,3-3.2l-1.2-14.37c-.09-1.2-.13-3.38-.13-4.54v-1h-.22a50.87,50.87,0,0,1-1.07,5.12l-5.52,20H422l-5.83-18.82a54.67,54.67,0,0,1-1.38-6.32h-.22c0,1.16-.13,4-.27,6.14l-.8,13.75c-.13,2.45.13,3.25,2.85,3.25v2h-9.61v-2c2.49-.09,2.94-.85,3.11-3.52l1.38-19.93c.13-2.18,0-3.25-3.2-3.38v-2.09h11.52l4.76,15.53a38.12,38.12,0,0,1,1.2,6h.18c.18-1,.58-3.74,1.2-6l4.23-15.53h11.48Z"/><path class="cls-1" d="M465,599.32h-9.52l-1.11,3.83a4.29,4.29,0,0,0-.18,1.11c0,1.11.89,1.25,2.85,1.33v2h-9.83v-2c1.91-.22,2.54-.62,3.29-3l8.41-25.9h5.61l8.85,25.9c.71,2,1.16,2.76,3,3v2H463.68v-2c2-.09,2.71-.44,2.71-1.33a3.77,3.77,0,0,0-.22-1.11ZM456.38,596h7.52l-2.4-7.52a44.47,44.47,0,0,1-1.33-5h-.22c-.22.89-.58,2.4-1.38,5.12Z"/><path class="cls-1" d="M497,597.41c0-2.54-.67-3.2-3.6-3.2v-2.14h13.44v2.14c-2.18,0-2.89.67-2.89,3.2v7.88c-2.67,2-7.21,2.89-11.08,2.89-8.9,0-14.19-5.52-14.19-15.57,0-11.26,6-16.42,14.64-16.42,4.41,0,7.65.89,9.83,2.27v6.05h-4.89c-.67-3.38-1.69-5.16-5.12-5.16-4.54,0-6.67,3.56-6.67,13.08,0,10,2.31,12.77,6.63,12.77a6.38,6.38,0,0,0,3.92-1Z"/><path class="cls-1" d="M510.88,605.6c2.31,0,3-.62,3-3.16V582.06c0-2.54-.71-3.16-3-3.2v-2.14h22.29l.49,7.52h-3.29c-1-3.38-1.51-4.36-4.63-4.36h-4.85v10.59h2.76c2.76,0,3.47-.62,3.65-3.16h2.94v9.34H527.3c-.18-2.4-.85-3.16-3.6-3.16h-2.8v11.17h5.52c2.94,0,4-1,4.41-5.16h3.38v8.14H510.88Z"/><path class="cls-1" d="M539,605.73v-5.92h4.67c.44,4.09,2.18,5.78,5.61,5.78s5.25-1.56,5.25-4.94c0-2.76-1.2-4.14-4.76-5.12l-3.16-.85c-4.67-1.25-7.39-3.6-7.39-8.9,0-6.32,4.23-9.61,10.72-9.61a17.79,17.79,0,0,1,9.17,2.18v6.14h-4.54c-.4-3.34-1.56-5.47-5.16-5.47-2.94,0-4.36,1.65-4.36,4.27,0,2.4,1.07,3.83,4.27,4.63l3,.76c5,1.29,8.32,4,8.32,9.57,0,6.41-4.23,10-11.79,10A18,18,0,0,1,539,605.73Z"/><path class="cls-1" d="M577.65,592.52c0-11.26,5.78-16.33,13.88-16.33,8.54,0,13.88,5.61,13.88,16.42,0,9.92-5.12,15.57-13.84,15.57C582.68,608.18,577.65,602.39,577.65,592.52Zm7.74-.4c0,10.15,2,13.17,6.18,13.17,3.74,0,6.1-2.45,6.1-12.9,0-9.7-1.87-13-6.14-13S585.4,582.46,585.4,592.12Z"/><path class="cls-1" d="M610.31,605.6c2.31,0,3-.62,3-3.16V582.06c0-2.54-.71-3.16-3-3.2v-2.14H632.6l.53,7.61h-3.29c-1.07-3.56-1.56-4.45-4.76-4.45h-4.76v10.81h2.76c2.76,0,3.47-.62,3.65-3.16h2.94v9.34h-2.94c-.18-2.4-.85-3.2-3.6-3.2h-2.8v8.72c0,2.54.76,3.2,3.78,3.2v2H610.31Z"/><path class="cls-1" d="M650.08,592.52c0-11.26,5.78-16.33,13.88-16.33,8.54,0,13.88,5.61,13.88,16.42,0,9.92-5.12,15.57-13.84,15.57C655.11,608.18,650.08,602.39,650.08,592.52Zm7.74-.4c0,10.15,2,13.17,6.18,13.17,3.74,0,6.1-2.45,6.1-12.9,0-9.7-1.87-13-6.14-13S657.82,582.46,657.82,592.12Z"/><path class="cls-1" d="M704.49,582.06c0-2.54-.67-3.16-3.11-3.2v-2.14h9.74v2.14c-2.27,0-2.94.67-2.94,3.2v15.57c0,6.72-3.34,10.55-11.26,10.55s-11.48-3.07-11.48-10.37V582.06c0-2.54-.67-3.16-3-3.2v-2.14h13.08v2.14c-2.4,0-3.11.67-3.11,3.2v15.62c0,5.12,1.82,6.9,5.92,6.9,3.92,0,6.14-1.78,6.14-7Z"/><path class="cls-1" d="M731.67,593.9a8.85,8.85,0,0,1,4.85,3.16,41,41,0,0,1,3.38,6c.85,1.69,1.25,2.49,3.38,2.58v2h-9a93.61,93.61,0,0,0-4.32-9.21c-1.56-2.8-2.49-3.56-4.76-3.78v7.79c0,2.49.76,3.16,3,3.16v2h-13v-2c2.31,0,3-.62,3-3.16V582.06c0-2.54-.71-3.16-3-3.2v-2.14h14.1c6.41,0,10.95,2.45,10.95,8.9,0,5.47-3.78,7.83-8.59,8.1Zm-3.69-14h-2.76v11.66h2.67c3.34,0,4.94-1.2,4.94-5.87C732.83,581.39,731.36,579.88,728,579.88Z"/><path class="cls-1" d="M782.79,576.72l.49,8.28h-3.34c-.89-3.83-1.2-5.12-4-5.12H774v22.56c0,2.58.85,3.16,3.52,3.16v2h-14v-2c2.67,0,3.52-.58,3.52-3.16V579.88h-1.91c-2.89,0-3.16,1.29-4,5.12h-3.38l.49-8.28Z"/><path class="cls-1" d="M790.13,582.06c0-2.54-.71-3.16-3-3.2v-2.14h13.08v2.14c-2.36,0-3.07.67-3.07,3.2v20.38c0,2.54.71,3.16,3.07,3.16v2H787.1v-2c2.31,0,3-.62,3-3.16Z"/><path class="cls-1" d="M840.36,578.81c-3.12.18-3.43,1.07-3.2,3.38l1.78,20c.22,2.49.58,3.34,3.07,3.43v2H829.06v-2c2.89-.09,3.2-.8,3-3.2l-1.2-14.37c-.09-1.2-.13-3.38-.13-4.54v-1h-.22a51.17,51.17,0,0,1-1.07,5.12l-5.52,20h-4.14l-5.83-18.82a54.76,54.76,0,0,1-1.38-6.32h-.22c0,1.16-.13,4-.27,6.14l-.8,13.75c-.13,2.45.13,3.25,2.85,3.25v2H804.5v-2c2.49-.09,2.94-.85,3.12-3.52L809,582.19c.13-2.18,0-3.25-3.2-3.38v-2.09h11.52l4.76,15.53a38.08,38.08,0,0,1,1.2,6h.18c.18-1,.58-3.74,1.2-6l4.23-15.53h11.48Z"/><path class="cls-1" d="M846.31,605.6c2.31,0,3-.62,3-3.16V582.06c0-2.54-.71-3.16-3-3.2v-2.14h22.29l.49,7.52H865.8c-1-3.38-1.51-4.36-4.63-4.36h-4.85v10.59h2.76c2.76,0,3.47-.62,3.65-3.16h2.94v9.34h-2.94c-.18-2.4-.85-3.16-3.6-3.16h-2.8v11.17h5.52c2.94,0,4-1,4.4-5.16h3.38v8.14H846.31Z"/><path class="cls-1" d="M874.48,605.73v-5.92h4.67c.45,4.09,2.18,5.78,5.61,5.78S890,604,890,600.66c0-2.76-1.2-4.14-4.76-5.12l-3.16-.85c-4.67-1.25-7.39-3.6-7.39-8.9,0-6.32,4.23-9.61,10.72-9.61a17.8,17.8,0,0,1,9.17,2.18v6.14H890c-.4-3.34-1.56-5.47-5.16-5.47-2.94,0-4.36,1.65-4.36,4.27,0,2.4,1.07,3.83,4.27,4.63l3,.76c5,1.29,8.32,4,8.32,9.57,0,6.41-4.23,10-11.79,10A18,18,0,0,1,874.48,605.73Z"/><path class="cls-1" d="M313.12,121.24c0,34.52-28,52.25-77.75,75.57l-11.2,5.29H318.4l-5.29,32H182.19V210.19l32.34-23.95c26.74-19.59,45.72-33.59,45.72-59.4,0-16.48-12.13-26.75-29.23-26.75-15.86,0-25.5,4-35.76,10.26l-8.71-17.73c16.17-13.37,36.07-21.77,64.06-21.77C290.73,70.86,313.12,88.59,313.12,121.24Z"/><path class="cls-1" d="M408.9,238.18c-45.72,0-77.13-30.79-77.13-83.35,0-50.07,33-84,79-84,42.29,0,77.75,26.75,77.75,81.17C488.51,211.43,454.3,238.18,408.9,238.18Zm.93-147.41c-18.35,0-27.37,15.86-27.37,65,0,43.85,6.53,63.75,28,63.75,17.73,0,27.06-17.1,27.06-68.42C437.51,106,427.56,90.77,409.83,90.77Z"/><path class="cls-1" d="M590.2,195.57c0,18.66,2.49,23.63,28,24.57v14H513.07v-14c26.75-1.24,30.79-5.6,30.79-24.88V108.8a132.39,132.39,0,0,1-34.21,13.37l-6.22-14.93L560.34,74H590.2Z"/><path class="cls-1" d="M671.68,115a69.29,69.29,0,0,1,37-10.88c35.76,0,62.82,20.53,62.82,63.75,0,44.16-28.61,70.59-76.19,70.59-48.83,0-75.88-31.1-75.88-84.9,0-80.24,65.31-120.35,128.44-135.59l5.6,16.48C708.06,51.89,681,73.66,671.68,115Zm-3.11,18.35a180.21,180.21,0,0,0-1.24,22.39c0,43.54,12.13,64.69,31.72,64.69,18.66,0,26.43-15.55,26.43-47.89,0-32.65-8.71-46.34-29.23-46.34A57.34,57.34,0,0,0,668.57,133.37Z"/><line class="cls-2" x1="242" y1="534" x2="724" y2="534"/></svg>